<?xml version="1.0" encoding="utf-8"?>
<svg version="1.1" id="artwork" xmlns="http://www.w3.org/2000/svg" xmlns:xlink="http://www.w3.org/1999/xlink" x="0px" y="0px"
	 viewBox="0 0 1170 620" style="enable-background:new 0 0 1170 620;" xml:space="preserve">
<style type="text/css">
	.st0{fill:url(#SVGID_1_);}
	.st1{opacity:0.4;fill:#D63903;}
	.st2{opacity:0.2;}
	.st3{fill:#4C0516;}
	.st4{fill:url(#SVGID_00000084492588350591290010000015776585912332245904_);}
	.st5{opacity:0.7;fill:#BFBFBF;}
	.st6{opacity:0.4;fill:#BFBFBF;}
	.st7{fill:#FFFFFF;}
	.st8{opacity:0.6;fill:#BFBFBF;}
	.st9{fill:url(#SVGID_00000065781191108926419160000014446490175059196342_);}
	.st10{opacity:0.2;fill:#F6FFC2;}
	.st11{fill:url(#SVGID_00000061443967665329950430000007720945093518507150_);}
	.st12{fill:url(#SVGID_00000016761260757163375160000012220775971326832572_);}
	.st13{font-family:'Montserrat-Black', 'Montserrat', sans-serif; font-weight: 900;}
	.st14{font-size:93.7021px;}
</style>
<g>
	<g>
		<linearGradient id="SVGID_1_" gradientUnits="userSpaceOnUse" x1="480.923" y1="334.1324" x2="659.8858" y2="203.22">
			<stop  offset="0" style="stop-color:#E03B12"/>
			<stop  offset="1" style="stop-color:#FD9220"/>
		</linearGradient>
		<path class="st0" d="M775.8,224.55l-55.62-17.23c0,0-23.63-27.56-75.31-36.92c-51.68-9.35-120.59,4.43-120.59,4.43
			s16.24,26.09,33.47,32.49c0,0-105.33,37.41-121.08,84.17c-15.75,46.76,93.29,52.66,93.29,52.66l97.69-13.28
			c0,0,21.66-45.28,62.02-46.76C730.02,282.62,769.4,262.45,775.8,224.55z"/>
		<path class="st1" d="M659.53,233.96l-8.6-1.65l4.3,11.31c0,0-89.34,26.25-121.46,86.13l133.62-79.51L659.53,233.96z"/>
		<path class="st1" d="M557.75,207.32c0,0-105.33,37.41-121.08,84.17c-0.15,0.45-0.27,0.89-0.4,1.33
			c2.75,9.24,6.23,19.35,10.29,28.25c9.14,7.22,22.6,12.24,36.06,15.7c1.24-1.7,2.49-3.64,3.75-5.89
			c31.86-56.91,86.86-85.5,86.86-85.5c-14.43-3.54-40.03-1.75-40.03-1.75c39.48-26.8,72.26-34.46,72.26-34.46
			s-42.07-21.07-81.17-34.33C524.28,174.83,540.52,200.92,557.75,207.32z"/>
		<g class="st2">
			<path class="st3" d="M497.34,313.52c-46.94-25.92-28.64-55.67-19.72-66.38c-3.77,2.54-7.43,5.17-10.93,7.89
				c-10.58,11.16-18.44,26.01-18.44,26.01l-13.03,21.31c3.15,36.84,94.74,41.8,94.74,41.8l84.65-11.51l2.2-20.34
				C616.81,312.29,541.07,337.67,497.34,313.52z"/>
			<path class="st3" d="M482.98,243.62c11.32-3.31,6.75-2.38,2.01-1.28c-0.68,0.43-1.36,0.85-2.03,1.29
				C482.96,243.63,482.97,243.63,482.98,243.62z"/>
		</g>

			<linearGradient id="SVGID_00000084492588350591290010000015776585912332245904_" gradientUnits="userSpaceOnUse" x1="625.7062" y1="314.8164" x2="772.365" y2="197.1915">
			<stop  offset="0" style="stop-color:#E2D3D9"/>
			<stop  offset="1" style="stop-color:#F9F9F9"/>
		</linearGradient>
		<path style="fill:url(#SVGID_00000084492588350591290010000015776585912332245904_);" d="M775.8,224.55
			c-30.6,22.26-61.43,17.01-61.43,17.01s-11.23-4.42-41.01,6.37c-29.78,10.79-51.37,13.81-71.84,39.29
			c-20.04,24.94-35.04,31.92-33.57,51.76l59.71-8.12c0,0,21.66-45.28,62.02-46.76C730.02,282.62,769.4,262.45,775.8,224.55z"/>
		<path class="st5" d="M644.14,307.36l-44.57,9.69l-15.17,14.53l43.94-2.08C630.13,326.1,635.47,316.73,644.14,307.36z"/>
		<path class="st6" d="M714.36,241.55l-45.57,43.68l-6.77-17.6c0,0-45.67,28.08-56.57,64.39s-45.49,4.74-45.49,4.74
			s9.25-29.92,54.11-55C658.94,256.68,714.36,241.55,714.36,241.55z"/>
		<path class="st7" d="M655.28,230.3l5.81,16.81h0c-92.78,29.06-128.91,83-136.77,96.59c3.55,0.32,5.63,0.43,5.63,0.43l57.73-7.85
			c10.8-19.88,36.18-58.29,78.23-75.23l5.54,16.01l42.9-35.52L655.28,230.3z"/>
		<path class="st8" d="M539.07,323.21c-7.76,9.17-12.46,16.55-14.74,20.5c3.55,0.32,5.63,0.43,5.63,0.43l57.73-7.85
			c2.9-5.34,6.85-12.01,11.89-19.24C584.73,320.55,562.12,324.46,539.07,323.21z"/>

			<linearGradient id="SVGID_00000055666079268975204170000008156511275208927380_" gradientUnits="userSpaceOnUse" x1="407.4477" y1="374.3898" x2="593.275" y2="332.7136">
			<stop  offset="0" style="stop-color:#E03B12"/>
			<stop  offset="1" style="stop-color:#FD9220"/>
		</linearGradient>
		<path style="fill:url(#SVGID_00000055666079268975204170000008156511275208927380_);" d="M482.98,243.62
			c-40.25,27.28-16.6,77.42,46.51,85.65c84.01,10.95,174.18-66.1,259.08,31.99c0,0-55.91,3.12-112.77,37
			c-48.55,28.93-145.07,93.6-230.96,48.29C328.78,385.33,390.13,250.88,482.98,243.62z"/>
		<path class="st10" d="M664.7,311.9c-5.93,2.4-13.07,4.82-21.66,7.25c-108.12,30.59-167.87,21.7-177.96-31.24
			c6.54,19.31,29.38,36.79,64.41,41.36C573.41,335,619.03,316.67,664.7,311.9z"/>
		<path class="st1" d="M661.95,360.38c-56.49,10.41-108.78,51.05-180.79,44.03c34.34-9.14,51.89-28.51,51.89-28.51
			c-108.91-1.13-113.51-41.01-113.51-41.01c26.59,20.36,52.86,9.25,52.86,9.25c-40.71-22.93-39.07-60.79,2.76-94.17
			c0.07-0.06,0.14-0.11,0.21-0.16c2.23-2.16,4.74-4.24,7.62-6.18c-26.07,2.04-49.66,14.1-67.53,31.76c-0.25,0.27-0.5,0.53-0.75,0.76
			c0,0-0.01,0.01-0.01,0.01c0,0,0,0,0,0c0,0-0.01,0.01-0.01,0.01c-0.49,0.49-0.96,0.98-1.44,1.48c-0.02,0.02-0.04,0.05-0.06,0.07
			c-43.76,45.66-50.41,125.55,31.64,168.85c85.89,45.31,182.41-19.36,230.96-48.29c56.86-33.88,112.77-37,112.77-37
			S720.84,349.53,661.95,360.38z"/>

			<linearGradient id="SVGID_00000180337639509926817890000007066467236560243589_" gradientUnits="userSpaceOnUse" x1="698.9063" y1="438.1718" x2="706.2738" y2="320.7846">
			<stop  offset="0" style="stop-color:#E2D3D9"/>
			<stop  offset="1" style="stop-color:#F9F9F9"/>
		</linearGradient>
		<path style="fill:url(#SVGID_00000180337639509926817890000007066467236560243589_);" d="M788.56,361.26
			c-49.54-57.23-100.87-54.84-151.72-45.09c0.02,0.01,17.17,7.52,22.84,14.32c0,0-28.1,12.48-40.34,23.83c0,0,33.15,3.4,42.61,6.05
			c0,0-22.69,20.05-29.12,31.39c0,0,35-0.94,48.14,3.5C735.99,364.2,788.56,361.26,788.56,361.26z"/>

			<linearGradient id="SVGID_00000178177831284692041840000018351682015994163382_" gradientUnits="userSpaceOnUse" x1="719.4308" y1="305.2945" x2="815.2866" y2="133.7266">
			<stop  offset="0" style="stop-color:#EA0E63"/>
			<stop  offset="1" style="stop-color:#FFFF00"/>
		</linearGradient>
		<path style="fill:url(#SVGID_00000178177831284692041840000018351682015994163382_);" d="M753.22,217.55L753.22,217.55
			c1.13,22.74,15.91,26.07,15.91,26.07c3.2-5.76,5.5-12.12,6.67-19.08L753.22,217.55z"/>
		<path class="st1" d="M769.12,243.62c3.2-5.76,5.5-12.12,6.67-19.08c-5.99,4.36-11.98,7.65-17.75,10.14
			C762.75,242.14,769.12,243.62,769.12,243.62z"/>
		<path class="st6" d="M661.95,360.38c0,0-22.69,20.05-29.12,31.39c0,0,35-0.94,48.14,3.5c55.03-31.06,107.6-34,107.6-34
			S736.4,346.12,661.95,360.38z"/>
		<path class="st10" d="M644.91,176.1c51.38,10.46,75.27,31.22,75.27,31.22s-23.63-27.56-75.31-36.92
			c-51.68-9.35-120.59,4.43-120.59,4.43S593.53,165.64,644.91,176.1z"/>
	</g>
	<g>
		<text transform="matrix(1 0 0 1 335.9395 567.2324)" class="st13 st14">WERKFOX</text>
	</g>
</g>
</svg>
