<svg xmlns="http://www.w3.org/2000/svg" viewBox="0 0 32 32">
  <defs>
    <linearGradient id="fox-grad" x1="0%" y1="0%" x2="100%" y2="100%">
      <stop offset="0%" stop-color="#E03B12"/>
      <stop offset="100%" stop-color="#FD9220"/>
    </linearGradient>
  </defs>
  <rect width="32" height="32" rx="6" fill="white"/>
  <g transform="translate(-2, 4) scale(0.045)">
    <path fill="url(#fox-grad)" d="M775.8,224.55l-55.62-17.23c0,0-23.63-27.56-75.31-36.92c-51.68-9.35-120.59,4.43-120.59,4.43s16.24,26.09,33.47,32.49c0,0-105.33,37.41-121.08,84.17c-15.75,46.76,93.29,52.66,93.29,52.66l97.69-13.28c0,0,21.66-45.28,62.02-46.76C730.02,282.62,769.4,262.45,775.8,224.55z"/>
    <path fill="url(#fox-grad)" d="M482.98,243.62c-40.25,27.28-16.6,77.42,46.51,85.65c84.01,10.95,174.18-66.1,259.08,31.99c0,0-55.91,3.12-112.77,37c-48.55,28.93-145.07,93.6-230.96,48.29C328.78,385.33,390.13,250.88,482.98,243.62z"/>
  </g>
</svg>
